<svg width="16" height="16" viewBox="0 0 16 16" fill="none" xmlns="http://www.w3.org/2000/svg">
<path fill-rule="evenodd" clip-rule="evenodd" d="M10.0853 8.21972C10.0853 7.73242 10.4804 7.33737 10.9677 7.33737C11.455 7.33737 11.85 7.73242 11.85 8.21972V8.6609H11.9382C12.6795 8.6609 13.0501 8.6609 13.3332 8.80516C13.5822 8.93205 13.7847 9.13452 13.9116 9.38356C14.0559 9.66668 14.0559 10.0373 14.0559 10.7785V10.8668H14.4971C14.9844 10.8668 15.3794 11.2618 15.3794 11.7491C15.3794 12.2365 14.9844 12.6315 14.4971 12.6315H14.0559V12.7197C14.0559 13.461 14.0559 13.8316 13.9116 14.1147C13.7847 14.3637 13.5822 14.5662 13.3332 14.6931C13.0501 14.8374 12.6795 14.8374 11.9382 14.8374H11.85V14.3962C11.85 13.9089 11.455 13.5138 10.9677 13.5138C10.4804 13.5138 10.0853 13.9089 10.0853 14.3962V14.8374H9.99707C9.25582 14.8374 8.8852 14.8374 8.60208 14.6931C8.35304 14.5662 8.15057 14.3637 8.02368 14.1147C7.87942 13.8316 7.87942 13.461 7.87942 12.7197V12.6315H8.3206C8.8079 12.6315 9.20295 12.2365 9.20295 11.7491C9.20295 11.2618 8.8079 10.8668 8.3206 10.8668H7.87942V10.7785C7.87942 10.0373 7.87942 9.66668 8.02368 9.38356C8.15057 9.13452 8.35304 8.93205 8.60208 8.80516C8.8852 8.6609 9.25582 8.6609 9.99707 8.6609H10.0853V8.21972Z" fill="#8080A0"/>
<path fill-rule="evenodd" clip-rule="evenodd" d="M2.24214 2.64549C2.52802 1.57855 3.6247 0.945389 4.69163 1.23127L10.4872 2.78419C11.5541 3.07007 12.1873 4.16674 11.9014 5.23368L11.5785 6.4387C11.387 6.37302 11.1815 6.33737 10.9677 6.33737C10.3601 6.33737 9.81977 6.62521 9.4756 7.07196C9.2208 7.40271 9.09338 7.56809 9.02543 7.6136C8.95747 7.65911 8.80321 7.70111 8.4947 7.78511C8.37196 7.81853 8.25283 7.86078 8.14809 7.91415C7.7109 8.13691 7.35544 8.49236 7.13267 8.92956C6.97675 9.23559 6.92386 9.54528 6.90078 9.82782C6.87937 10.0898 6.8794 10.403 6.87942 10.7436L6.87942 12.1703L2.10344 10.8905C1.0365 10.6046 0.40334 9.50797 0.689224 8.44104L2.24214 2.64549ZM5.11565 6.20835C5.25859 5.67488 5.80693 5.3583 6.3404 5.50124L6.92432 5.6577C7.45779 5.80064 7.77437 6.34898 7.63143 6.88245L7.47497 7.46637C7.33202 7.99984 6.78369 8.31642 6.25022 8.17348L5.6663 8.01702C5.13283 7.87407 4.81625 7.32574 4.95919 6.79227L5.11565 6.20835Z" fill="#5BAFD4"/>
</svg>
